<?xml version="1.0" standalone="no"?>
<!DOCTYPE svg PUBLIC "-//W3C//DTD SVG 20010904//EN"
 "http://www.w3.org/TR/2001/REC-SVG-20010904/DTD/svg10.dtd">
<svg version="1.0" xmlns="http://www.w3.org/2000/svg"
 width="665.000000pt" height="479.000000pt" viewBox="0 0 665.000000 479.000000"
 preserveAspectRatio="xMidYMid meet">

<g transform="translate(0.000000,479.000000) scale(0.100000,-0.100000)"
fill="#000000" stroke="none">
<path d="M2042 4683 c29 -80 28 -187 -1 -276 -24 -72 -58 -121 -195 -287 -101
-122 -122 -161 -135 -252 -29 -205 77 -398 283 -513 36 -20 66 -39 66 -41 0
-3 -21 -14 -46 -25 -41 -17 -180 -109 -253 -167 l-24 -20 49 -62 c100 -127
243 -221 389 -256 69 -16 204 -15 294 2 29 6 33 4 28 -10 -4 -9 -7 -55 -8
-102 -1 -82 0 -88 36 -145 l37 -61 -1 -429 -2 -428 716 -1 716 0 -2 438 -1
437 33 54 c33 53 34 56 31 153 l-2 99 37 -8 c21 -4 90 -8 153 -8 94 0 128 5
189 24 117 38 276 153 362 262 31 40 31 40 11 55 -11 8 -47 36 -79 64 -32 27
-95 69 -140 92 -46 23 -83 42 -83 43 0 1 36 23 80 49 190 110 303 299 287 479
-8 90 -52 167 -178 313 -121 141 -170 224 -189 322 -12 59 -9 149 6 231 6 31
5 33 -17 26 -33 -11 -128 -77 -160 -111 -38 -42 -73 -100 -99 -169 -18 -47
-23 -81 -23 -155 0 -106 13 -152 92 -309 l42 -83 -27 -29 c-15 -16 -53 -39
-83 -51 l-56 -23 -890 0 -890 0 -57 23 c-55 22 -108 70 -108 96 0 8 20 56 44
107 67 143 79 185 75 281 -4 73 -9 93 -45 168 -23 47 -60 106 -83 132 -47 52
-154 128 -181 128 -18 0 -17 -3 2 -57z m159 -448 c-7 -27 -34 -95 -62 -150
-36 -73 -50 -113 -51 -145 -3 -181 148 -279 430 -280 84 0 84 0 52 -100 -11
-34 -20 -81 -20 -104 0 -40 -1 -41 -33 -40 -50 2 -53 4 -37 14 12 7 10 11 -10
18 -27 10 -198 28 -215 22 -5 -2 -30 -2 -54 -2 -51 2 -48 -8 6 -18 l38 -8 -36
-1 c-24 -1 -63 12 -116 39 -95 47 -172 123 -210 206 -22 48 -25 66 -21 132 5
103 33 157 158 307 60 71 116 150 138 194 l37 75 9 -54 c5 -36 4 -72 -3 -105z
m2252 -9 c19 -28 64 -84 100 -123 84 -92 110 -132 137 -213 65 -193 -69 -376
-330 -454 -59 -18 -170 -22 -170 -6 0 6 -10 10 -22 10 -19 0 -20 -2 -8 -10 11
-7 -3 -10 -46 -10 -34 0 -76 -3 -93 -6 l-31 -6 0 48 c0 35 3 45 10 34 5 -8 10
-25 10 -37 0 -13 5 -23 10 -23 6 0 10 10 10 23 0 18 2 19 10 7 7 -11 8 -6 4
16 -5 28 -3 32 25 42 47 17 37 23 -25 16 -67 -8 -74 -2 -74 72 l0 51 118 6
c196 10 314 54 371 141 22 33 26 51 26 110 0 68 -4 77 -63 189 -59 111 -62
121 -62 186 0 102 8 113 36 45 12 -31 38 -79 57 -108z m-1178 -580 c61 0 203
4 316 9 l206 8 12 -79 c11 -67 16 -121 34 -325 2 -23 -14 -37 -143 -123 -166
-110 -180 -114 -252 -61 -80 59 -121 142 -104 211 4 15 36 57 71 93 109 114
83 141 -68 71 l-91 -42 -88 43 c-48 23 -90 40 -94 36 -14 -14 9 -57 66 -122
54 -61 60 -72 60 -112 0 -74 -45 -140 -131 -191 -51 -31 -85 -28 -133 11 -55
45 -162 112 -219 137 -26 12 -45 25 -43 29 5 8 47 247 61 345 12 86 -7 80 224
71 113 -5 256 -9 316 -9z m-779 -407 c7 -11 -38 -58 -93 -96 -44 -32 -170 -73
-221 -73 l-47 0 3 -45 c2 -24 7 -44 10 -43 4 1 21 -5 37 -15 48 -26 6 -19 -65
11 -79 34 -183 99 -176 110 9 14 187 99 255 122 106 35 282 52 297 29z m1829
-24 c39 -13 121 -48 183 -78 l113 -55 -33 -25 c-80 -62 -307 -149 -270 -105 7
8 35 26 62 39 50 24 58 33 40 44 -17 11 -11 25 12 25 45 0 10 9 -57 14 -78 7
-212 39 -228 55 -8 8 -7 11 4 11 7 0 -4 9 -26 20 -70 33 -102 71 -72 84 28 12
204 -7 272 -29z m-1484 -273 c32 -30 59 -58 59 -63 0 -5 -23 -9 -50 -9 -101 0
-179 66 -206 177 l-7 26 72 -39 c40 -21 99 -63 132 -92z m1022 56 c-45 -85
-68 -104 -157 -128 l-66 -17 0 21 c0 39 89 120 185 169 76 40 80 35 38 -45z
m-516 -20 c41 -35 87 -72 100 -83 19 -16 26 -35 34 -90 5 -38 25 -129 44 -202
30 -116 44 -158 81 -248 4 -12 -3 -8 -19 12 -50 58 -98 68 -312 68 -204 0
-242 -7 -295 -52 -34 -28 -37 -22 -15 29 21 51 93 346 101 414 6 46 13 63 33
80 14 12 55 47 91 77 36 31 69 56 73 56 4 1 42 -27 84 -61z m-351 -814 c49
-101 112 -170 164 -180 16 -4 28 -9 26 -13 -4 -6 163 -5 197 2 9 2 37 17 61
34 52 37 107 129 146 246 l27 80 18 -66 c31 -114 11 -167 -105 -285 -90 -92
-111 -101 -242 -109 -77 -5 -92 -3 -141 20 -57 26 -150 90 -188 130 -12 12
-30 42 -41 66 -22 49 -21 121 4 201 l13 41 8 -37 c4 -21 28 -79 53 -130z m448
140 c24 -9 20 -26 -19 -78 l-36 -46 -104 0 -105 0 -41 37 c-40 37 -61 70 -52
86 5 8 334 10 357 1z m-705 -343 c36 -72 34 -88 -4 -36 -43 58 -85 141 -85
170 0 20 48 -53 89 -134z m1140 67 c1 -5 -3 -8 -7 -8 -4 0 -8 12 -9 28 -1 23
-1 24 7 7 5 -11 9 -23 9 -27z"/>
<path d="M2011 3986 c-12 -13 -22 -30 -21 -37 4 -27 0 -40 -10 -34 -28 17 6
-115 63 -246 16 -36 58 -64 90 -60 9 1 17 -2 17 -7 0 -5 12 -9 27 -9 23 0 18
4 -30 29 -75 38 -129 117 -146 212 -11 60 -10 69 13 120 14 31 24 56 22 56 -1
0 -13 -11 -25 -24z"/>
<path d="M2225 3580 c19 -8 73 -14 64 -6 -2 2 -22 6 -44 9 -28 5 -34 4 -20 -3z"/>
<path d="M4584 3927 c3 -10 6 -42 6 -70 0 -38 3 -48 10 -37 11 16 3 86 -12
110 -8 12 -8 11 -4 -3z"/>
<path d="M4248 3433 c12 -2 32 -2 45 0 12 2 2 4 -23 4 -25 0 -35 -2 -22 -4z"/>
<path d="M4178 3133 c7 -3 16 -2 19 1 4 3 -2 6 -13 5 -11 0 -14 -3 -6 -6z"/>
<path d="M3075 2000 c-3 -5 -1 -10 4 -10 6 0 11 5 11 10 0 6 -2 10 -4 10 -3 0
-8 -4 -11 -10z"/>
<path d="M3095 1940 c3 -5 8 -10 11 -10 2 0 4 5 4 10 0 6 -5 10 -11 10 -5 0
-7 -4 -4 -10z"/>
<path d="M3434 4509 c-2 -4 -1 -123 3 -265 l6 -259 274 0 273 0 0 265 0 265
-276 0 c-152 0 -278 -3 -280 -6z"/>
<path d="M2576 4502 c-3 -5 -6 -121 -6 -258 l-1 -249 266 -3 c251 -2 266 -1
261 15 -2 10 -6 127 -8 260 -2 136 -7 242 -12 240 -5 -2 -10 -18 -12 -37 -7
-62 -4 -61 -253 -58 l-226 3 0 30 c0 17 4 35 8 42 4 6 4 14 -2 17 -5 4 -12 2
-15 -2z"/>
<path d="M5397 4353 c-7 -14 -6 -646 1 -698 l7 -50 45 -3 c84 -5 83 -10 84
274 1 137 -3 302 -7 367 l-9 117 -58 0 c-33 0 -61 -3 -63 -7z"/>
<path d="M5174 3985 c1 -283 3 -344 14 -340 8 3 28 5 47 5 l33 0 6 193 c3 105
2 257 -2 337 l-7 145 -46 3 -46 3 1 -346z"/>
<path d="M5655 4160 c-7 -150 0 -432 11 -492 5 -26 10 -28 50 -28 l44 0 0 340
0 340 -49 0 -49 0 -7 -160z"/>
<path d="M1043 4129 c-76 -38 -119 -135 -93 -213 26 -80 92 -129 175 -129 203
0 251 269 63 347 -51 22 -95 20 -145 -5z"/>
<path d="M5269 3361 l-77 -6 -67 -73 -68 -73 -1 -347 -1 -348 70 -24 c68 -22
228 -36 456 -39 l66 -1 86 64 c47 35 104 72 126 82 l40 19 1 151 c0 83 3 253
7 377 l6 227 -284 -2 c-156 -1 -318 -4 -360 -7z"/>
<path d="M688 2989 l3 -371 107 -65 c59 -36 121 -74 137 -84 28 -17 43 -17
200 -8 154 9 369 41 387 57 4 4 3 25 -2 47 -5 22 -10 210 -10 418 l0 377 -412
0 -413 0 3 -371z m607 -209 c-3 -5 -21 -10 -38 -9 -31 1 -31 1 -7 9 36 11 52
11 45 0z"/>
<path d="M6225 3260 c-66 -4 -123 -8 -127 -9 -5 0 -8 -21 -8 -46 l0 -45 180 0
c167 0 181 1 200 20 25 25 25 32 2 60 -22 28 -67 31 -247 20z"/>
<path d="M112 3203 l3 -48 185 -2 c102 -2 190 0 197 5 6 4 13 25 15 47 l3 40
-203 3 -203 2 3 -47z"/>
<path d="M6145 3001 l-80 -6 -3 -47 c-2 -34 1 -48 10 -49 60 -3 350 3 376 8
45 8 64 46 36 72 -16 15 -40 19 -139 23 -66 2 -156 2 -200 -1z"/>
<path d="M77 2994 c-4 -4 -7 -26 -7 -49 0 -40 2 -43 31 -49 38 -7 255 -6 359
3 l75 6 0 45 0 45 -226 3 c-124 1 -228 -1 -232 -4z"/>
<path d="M84 2732 c-17 -11 -24 -53 -13 -74 9 -17 26 -18 213 -18 225 0 230 1
224 62 l-3 33 -205 2 c-113 2 -210 0 -216 -5z"/>
<path d="M6112 2733 c-20 -4 -23 -9 -20 -46 l3 -42 189 -3 c130 -2 193 1 202
9 21 17 17 66 -5 79 -19 10 -320 12 -369 3z"/>
<path d="M1760 2679 c0 -20 -3 -70 -6 -112 l-7 -77 137 0 136 0 2 70 c1 39 2
87 3 108 l0 37 -133 5 -132 5 0 -36z"/>
<path d="M4550 2600 l0 -111 135 2 135 1 0 109 0 109 -135 0 -135 0 0 -110z"/>
<path d="M2047 2322 c-186 -1 -336 -6 -333 -10 3 -5 6 -165 7 -355 l2 -347
338 0 337 0 0 355 c0 195 -3 356 -6 357 -4 2 -159 2 -345 0z m243 -22 c0 -5 9
-10 19 -10 26 0 21 -44 -8 -73 -20 -21 -32 -22 -228 -25 -113 -2 -216 -1 -229
2 -22 6 -72 82 -61 93 3 2 115 8 249 12 133 4 246 9 251 9 4 1 7 -2 7 -8z"/>
<path d="M4155 2162 c0 -92 1 -254 3 -359 l2 -193 350 0 350 0 0 360 0 360
-352 0 -353 0 0 -168z"/>
<path d="M1053 2149 c-42 -27 -77 -99 -70 -144 7 -43 40 -88 82 -111 63 -34
156 0 189 70 20 43 21 110 0 141 -41 63 -138 84 -201 44z"/>
<path d="M5405 2125 c-56 -20 -85 -56 -85 -106 0 -81 51 -129 136 -129 29 0
44 7 69 35 55 58 58 130 7 178 -35 32 -77 40 -127 22z"/>
<path d="M1377 1078 c2 -150 6 -292 9 -315 l5 -43 67 0 67 0 0 315 0 315 -76
0 -76 0 4 -272z"/>
<path d="M1597 1084 c4 -287 8 -350 24 -360 6 -3 35 -3 66 1 l55 7 -4 304 c-3
296 -4 304 -23 304 -11 0 -43 3 -71 6 l-51 6 4 -268z"/>
<path d="M2524 1273 c3 -43 8 -184 11 -313 l5 -235 63 4 c34 2 62 4 63 5 1 0
-3 114 -8 251 -5 138 -7 273 -4 301 l4 51 -51 7 c-95 11 -89 16 -83 -71z"/>
<path d="M3587 1085 c0 -143 1 -284 2 -312 l1 -53 68 0 67 0 -3 80 c-3 73 -2
80 16 80 11 0 38 -24 66 -58 69 -87 94 -102 166 -102 33 0 60 3 60 8 0 4 -17
28 -39 54 -21 26 -62 79 -91 118 l-53 71 35 37 c19 20 58 65 86 99 l53 61 -68
8 c-61 6 -68 5 -81 -14 -7 -11 -45 -49 -84 -83 l-71 -63 7 153 c3 84 8 157 9
162 1 6 -31 11 -73 12 l-75 2 2 -260z"/>
<path d="M4368 1336 c-100 -27 -159 -93 -166 -184 -3 -47 0 -63 20 -92 29 -43
105 -86 178 -101 112 -22 146 -53 103 -92 -42 -37 -127 -25 -205 29 -33 23
-41 26 -48 14 -5 -8 -22 -33 -39 -54 -22 -27 -28 -42 -21 -51 5 -6 47 -29 92
-51 68 -31 94 -39 143 -39 83 0 146 26 194 81 43 49 56 92 41 143 -18 65 -58
91 -204 137 -84 26 -126 51 -126 74 0 6 12 22 26 35 38 35 93 33 162 -6 30
-17 55 -29 56 -27 1 2 19 27 39 56 20 28 37 54 37 56 0 12 -112 65 -158 75
-63 13 -64 13 -124 -3z"/>
<path d="M1982 1031 l3 -313 190 3 c180 4 192 5 228 28 22 13 52 42 68 64 51
71 35 137 -47 188 l-36 22 44 37 c40 35 43 41 42 87 -1 84 -54 147 -143 173
-20 6 -107 14 -194 17 l-159 6 4 -312z m330 149 c22 -28 23 -58 1 -82 -13 -15
-32 -18 -108 -18 -88 0 -93 1 -99 23 -8 31 -7 92 2 101 4 5 47 6 96 3 78 -4
92 -8 108 -27z m34 -244 c16 -22 17 -36 6 -52 -16 -25 -56 -34 -146 -34 l-96
0 0 54 c0 64 -2 64 133 56 73 -4 91 -9 103 -24z"/>
<path d="M329 1328 c-4 -25 -6 -482 -2 -535 l6 -73 179 0 c145 0 185 3 211 16
46 23 66 44 89 88 30 59 20 111 -31 159 -23 21 -41 40 -41 43 0 2 16 18 35 35
76 67 47 186 -58 241 -38 20 -61 23 -214 26 -95 2 -173 2 -174 0z m326 -153
c14 -13 25 -31 25 -40 0 -9 -11 -27 -25 -40 -20 -21 -33 -25 -87 -25 -104 0
-108 3 -108 71 l0 59 85 0 c78 0 88 -2 110 -25z m-1 -225 c37 -14 46 -58 16
-82 -18 -14 -40 -18 -110 -18 l-87 0 -6 47 c-3 27 -3 51 0 55 6 11 157 10 187
-2z"/>
<path d="M3314 1176 c-41 -18 -108 -79 -135 -123 -18 -29 -21 -45 -17 -103 4
-56 12 -79 38 -120 50 -77 90 -103 166 -108 55 -4 69 -1 106 22 87 52 87 52
51 87 -29 30 -32 31 -65 19 -72 -26 -151 16 -164 87 -8 44 7 78 48 103 39 24
73 25 112 5 39 -20 40 -20 62 20 l18 34 -24 27 c-52 56 -134 77 -196 50z"/>
<path d="M4694 886 l0 -304 44 -6 c25 -3 58 -6 75 -6 l30 0 -5 104 -6 104 45
-32 c90 -63 193 -30 257 84 27 48 31 64 31 130 0 83 -13 115 -67 173 -65 69
-158 71 -232 7 -43 -38 -50 -38 -42 5 l7 35 -55 0 c-30 0 -60 2 -68 5 -11 4
-13 -50 -14 -299z m303 169 c27 -19 47 -86 38 -126 -9 -39 -69 -99 -99 -99
-36 0 -102 53 -109 88 -21 102 91 192 170 137z"/>
<path d="M5278 1164 c-73 -28 -78 -36 -52 -85 11 -21 20 -29 31 -24 29 10 130
18 157 11 30 -7 66 -40 66 -59 0 -9 -19 -11 -73 -9 -60 3 -84 0 -126 -18 -69
-30 -91 -60 -91 -122 0 -44 4 -53 44 -93 69 -68 153 -73 221 -13 l35 30 0 -31
0 -31 65 0 66 0 -7 173 c-7 194 -13 213 -81 261 -35 24 -54 30 -115 33 -61 3
-85 -1 -140 -23z m202 -267 c0 -34 -32 -59 -85 -65 -50 -5 -85 15 -85 49 0 28
29 38 103 39 64 0 67 -1 67 -23z"/>
<path d="M5804 1176 c-45 -20 -112 -83 -135 -127 -24 -48 -25 -138 -3 -182 47
-93 128 -149 214 -149 53 0 138 33 169 66 l21 22 -46 38 -45 38 -23 -21 c-27
-26 -72 -27 -109 -3 -42 28 -56 53 -57 99 0 62 42 108 100 108 34 0 47 -6 66
-28 l24 -28 37 42 c48 52 49 57 27 75 -76 59 -172 79 -240 50z"/>
<path d="M6228 1175 c-56 -21 -106 -62 -136 -114 -22 -37 -27 -58 -27 -111 0
-70 12 -96 69 -158 77 -84 191 -100 306 -42 36 18 67 34 70 37 6 5 -82 82 -95
82 -5 0 -21 -8 -35 -19 -35 -27 -88 -25 -133 5 -63 43 -51 55 56 55 50 -1 120
-7 155 -14 78 -17 80 -14 65 92 -13 89 -44 133 -123 175 -58 30 -112 34 -172
12z m138 -126 c44 -41 33 -49 -71 -49 -108 0 -118 9 -63 55 26 22 39 26 71 22
21 -3 50 -16 63 -28z"/>
<path d="M872 1008 c3 -149 6 -178 23 -212 32 -64 64 -81 149 -81 64 0 77 3
109 28 l37 28 0 -32 c0 -28 3 -31 23 -25 12 3 41 6 65 6 l42 0 0 231 0 230
-70 -3 -70 -3 0 -90 c-1 -173 -5 -203 -30 -230 -27 -28 -58 -32 -99 -11 -43
23 -51 54 -51 199 l0 132 -66 3 -65 3 3 -173z"/>
<path d="M2830 1161 c-20 -11 -56 -42 -82 -69 -55 -58 -68 -110 -48 -192 15
-64 90 -150 152 -175 92 -37 220 17 271 115 26 50 28 62 24 123 -7 86 -28 122
-100 172 -50 34 -66 40 -120 42 -47 2 -71 -2 -97 -16z m165 -127 c48 -51 42
-132 -13 -174 -31 -25 -53 -25 -100 -1 -83 42 -81 150 3 187 48 21 83 17 110
-12z"/>
<path d="M1836 413 c-3 -4 -6 -17 -6 -30 0 -19 5 -23 33 -23 53 0 56 -7 59
-125 3 -109 3 -109 28 -109 25 0 25 0 30 114 l5 115 35 1 c60 1 62 2 58 32
l-3 27 -116 2 c-64 1 -119 -1 -123 -4z"/>
<path d="M2283 413 l-93 -4 0 -93 c0 -51 3 -113 6 -138 l6 -45 74 -6 c99 -9
134 -1 134 29 0 22 -4 23 -72 26 -71 3 -73 4 -76 31 l-3 27 65 0 c64 0 66 1
66 25 0 24 -2 25 -64 25 -67 0 -76 6 -76 51 0 17 8 19 80 19 l80 0 0 30 c0 23
-4 29 -17 28 -10 -1 -60 -4 -110 -5z"/>
<path d="M2624 401 c-54 -24 -89 -81 -88 -139 1 -34 8 -50 35 -78 67 -70 128
-82 192 -39 20 14 37 29 37 33 0 4 -14 13 -32 20 -26 10 -35 9 -48 -3 -24 -22
-55 -18 -89 11 -51 42 -41 119 18 143 24 11 35 10 65 -4 34 -16 38 -16 62 0
25 16 25 17 8 36 -16 18 -72 39 -104 39 -8 0 -33 -9 -56 -19z"/>
<path d="M3900 270 l0 -150 99 0 c94 0 99 1 105 22 3 13 6 26 6 31 0 4 -29 7
-64 7 -36 0 -68 5 -72 11 -3 6 -9 57 -12 114 -4 94 -7 104 -26 109 -12 3 -24
6 -28 6 -5 0 -8 -67 -8 -150z"/>
<path d="M4273 404 c-51 -26 -85 -77 -85 -130 0 -116 131 -193 223 -131 96 65
104 161 20 241 -38 36 -109 45 -158 20z m134 -79 c30 -35 29 -76 -3 -114 -35
-42 -84 -43 -125 -2 -39 39 -40 88 -2 126 24 23 34 26 68 22 26 -4 48 -15 62
-32z"/>
<path d="M4695 407 c-52 -24 -95 -82 -95 -128 0 -52 33 -115 73 -139 58 -36
171 -19 197 30 6 11 10 40 8 63 l-3 42 -65 0 c-61 0 -65 -1 -68 -24 -3 -22 -1
-23 27 -18 28 6 31 4 31 -18 0 -54 -86 -49 -120 8 -28 45 -25 74 10 109 27 26
35 29 68 24 71 -13 107 -12 107 3 0 42 -112 74 -170 48z"/>
<path d="M2946 388 c-3 -13 -6 -78 -6 -145 l0 -123 30 0 c29 0 30 1 30 49 0
28 4 52 9 55 5 4 37 9 70 12 l61 7 0 -66 c0 -61 1 -65 21 -60 32 9 40 45 37
174 l-3 119 -26 0 c-22 0 -28 -6 -33 -31 -3 -17 -6 -42 -6 -55 0 -23 -3 -24
-65 -24 l-65 0 0 55 c0 51 -2 55 -24 55 -16 0 -26 -7 -30 -22z"/>
<path d="M3528 265 l3 -145 95 0 c87 0 97 2 119 24 36 36 43 74 16 92 -25 18
-26 35 -7 73 13 25 13 31 -2 52 -29 43 -44 48 -137 49 l-90 0 3 -145z m156 82
c15 -11 17 -17 7 -35 -9 -18 -21 -22 -56 -22 -45 0 -45 0 -45 35 0 34 1 35 38
35 21 0 46 -6 56 -13z m21 -137 c0 -23 -4 -25 -57 -28 -56 -3 -58 -2 -58 22 0
27 19 35 80 32 30 -1 35 -4 35 -26z"/>
<path d="M1030 244 l0 -47 262 7 c145 4 264 8 265 9 0 1 4 19 8 40 l7 37 -271
0 -271 0 0 -46z"/>
<path d="M5120 245 l0 -45 203 0 c260 0 304 5 311 36 14 54 15 54 -260 54
l-254 0 0 -45z"/>
</g>
</svg>
